<?xml version="1.0" encoding="utf-8"?>
<!-- Generator: Adobe Illustrator 24.0.0, SVG Export Plug-In . SVG Version: 6.00 Build 0)  -->
<svg version="1.1" id="Capa_1" xmlns="http://www.w3.org/2000/svg" xmlns:xlink="http://www.w3.org/1999/xlink" x="0px" y="0px"
	 viewBox="0 0 238.46 129.3" style="enable-background:new 0 0 238.46 129.3;" xml:space="preserve">
<style type="text/css">
	.st0{clip-path:url(#SVGID_2_);fill-rule:evenodd;clip-rule:evenodd;fill:#FFFFFF;}
	.st1{clip-path:url(#SVGID_2_);fill:#FFFFFF;}
	.st2{fill:#FFFFFF;}
	.st3{font-family:'Scada-BoldItalic';}
	.st4{font-size:25.9822px;}
	.st5{letter-spacing:0.87;}
	.st6{font-size:34.0699px;}
</style>
<g>
	<defs>
		<rect id="SVGID_1_" y="-112.5" width="228.29" height="344.11"/>
	</defs>
	<clipPath id="SVGID_2_">
		<use xlink:href="#SVGID_1_"  style="overflow:visible;"/>
	</clipPath>
	<path class="st0" d="M97.48,64.31c-7.2-7.15-10.22-11.62-13.34-16.51c-3.73-5.86-4.87-9.2-7.56-15.86
		c-6.67-16.49-41.11,2.22-58.16-28.76c10.8,41.26,32.67,35.47,58.14,37.62c-12.32,0.67-37.88,2.95-48.86-6.63
		c11.69,20.33,34.25,13.6,49.6,12.98c-11.27,2.33-31.57,9.71-42.65,3.62c13.01,15.51,31.63,4.02,44.15,1.85
		c-8.54,3.53-24.32,11.02-34.14,7.81C57.84,71.9,71.88,61.37,82.8,56.4c-5.57,4.76-17.07,10.63-24.68,10.45
		c13.02,6.42,20.08-1.26,28.39-8.66c-2.81,4.44-6.2,8.36-10.73,11.14C87.61,67.68,90.02,55.62,97.48,64.31"/>
	<path class="st0" d="M128.53,64.31c7.2-7.15,10.22-11.62,13.34-16.51c3.73-5.86,4.87-9.2,7.56-15.86
		c6.67-16.49,41.11,2.22,58.16-28.76c-10.8,41.26-32.67,35.47-58.14,37.62c12.32,0.67,37.88,2.95,48.86-6.63
		c-11.69,20.33-34.25,13.6-49.6,12.98c11.27,2.33,31.57,9.71,42.65,3.62c-13.01,15.51-31.63,4.02-44.15,1.85
		c8.54,3.53,24.32,11.02,34.14,7.81c-13.17,11.48-27.21,0.95-38.13-4.02c5.57,4.76,17.07,10.63,24.68,10.45
		c-13.02,6.42-20.08-1.26-28.39-8.66c2.81,4.44,6.2,8.36,10.73,11.14C138.4,67.68,135.98,55.62,128.53,64.31"/>
	<path class="st1" d="M81.71,19.93c-2.1,1.6-2.74,4.2-2.76,6.96c-0.02,2.88,1.76,2.42,3.56,1.81c4.74-1.6,9.48-4.48,22.81-6.6
		c12.89-2.04,30.81-0.24,32.85,7.68c4.06,15.71-17.93,42.92-24.86,42.92c-5.86,0-28.08-24.27-23.66-32.37
		c4.42-8.09,33.99-8.56,35.3-3.28c0.67,2.7-6.18,12.31-9.06,17.03c-1.01,1.65-3.37,1.73-4.49,0.16l-9.66-10.63
		c-0.38-0.54-0.94-0.92-1.58-1.06c-0.58-0.13-1.43-0.23-2.62-0.18c-0.03,0-0.06,0-0.09,0c-2.07,0.1-3.24,2.42-2.11,4.16
		c3.82,5.85,15.67,20.37,18.04,20.37c2.51,0,24.54-28.14,19.11-35.82c-4.64-6.56-38.59-7.68-48.45,3.4
		c-11.69,13.13,20.08,46.67,30,46.09c9.08-0.54,38.72-36.35,31.55-55.12c-4.1-10.73-22.3-14.13-38.4-12.6
		C95.13,13.99,84.02,18.17,81.71,19.93"/>
</g>
<text transform="matrix(1.1441 0 0 1 42.616 114.5769)"><tspan x="0" y="0" class="st2 st3 st4 st5">CRE</tspan><tspan x="47.16" y="0" class="st2 st3 st4">A</tspan><tspan x="63.01" y="0" class="st2 st3 st4 st5">TI</tspan><tspan x="86.91" y="0" class="st2 st3 st4 st5">V</tspan><tspan x="103.51" y="0" class="st2 st3 st4">E</tspan></text>
<text transform="matrix(1.1439 -0.0225 0.0197 0.9998 179.086 109.5969)" class="st2 st3 st6">+</text>
</svg>
