<?xml version="1.0" encoding="utf-8"?>
<!-- Generator: Adobe Illustrator 24.0.0, SVG Export Plug-In . SVG Version: 6.00 Build 0)  -->
<svg version="1.1" id="Capa_1" xmlns="http://www.w3.org/2000/svg" xmlns:xlink="http://www.w3.org/1999/xlink" x="0px" y="0px"
	 viewBox="0 0 238.46 129.3" style="enable-background:new 0 0 238.46 129.3;" xml:space="preserve">
<style type="text/css">
	.st0{clip-path:url(#SVGID_2_);fill:url(#SVGID_3_);}
	.st1{clip-path:url(#SVGID_5_);fill:url(#SVGID_6_);}
	.st2{clip-path:url(#SVGID_8_);fill:url(#SVGID_9_);}
	.st3{fill:#4D4D4D;}
	.st4{font-family:'Scada-BoldItalic';}
	.st5{font-size:23.2845px;}
	.st6{letter-spacing:0.87;}
	.st7{font-size:23.2847px;}
</style>
<g>
	<defs>
		<path id="SVGID_1_" d="M100.02,75.53c-0.7-0.82-1.37-1.49-2-2.02C98.65,74.16,99.32,74.83,100.02,75.53 M74.14,46.42
			c-15.25,0.83-46.89,3.66-60.48-8.2c14.47,25.16,42.39,16.84,61.39,16.07c-13.95,2.88-39.08,12.01-52.79,4.47
			c16.1,19.2,39.15,4.97,54.65,2.29c-10.57,4.37-30.1,13.64-42.25,9.67c16.3,14.21,33.68,1.18,47.2-4.98
			c-6.89,5.9-21.13,13.16-30.55,12.93c16.11,7.95,24.85-1.55,35.14-10.72c-3.47,5.5-7.68,10.34-13.28,13.79
			c13.53-1.88,17.11-14.77,24.86-8.23c-7.49-7.7-10.94-12.83-14.5-18.42c-4.62-7.25-6.03-11.39-9.36-19.63
			C65.89,15.04,23.27,38.2,2.17-0.15C15.54,50.92,42.6,43.76,74.14,46.42"/>
	</defs>
	<clipPath id="SVGID_2_">
		<use xlink:href="#SVGID_1_"  style="overflow:visible;"/>
	</clipPath>
	
		<linearGradient id="SVGID_3_" gradientUnits="userSpaceOnUse" x1="-359.0251" y1="1155.3608" x2="-358.8311" y2="1155.3608" gradientTransform="matrix(504.2861 0 0 -504.2861 181053.5625 582675.625)">
		<stop  offset="0" style="stop-color:#CBDFF3"/>
		<stop  offset="0.079" style="stop-color:#C3DAF1"/>
		<stop  offset="0.2103" style="stop-color:#AACCEC"/>
		<stop  offset="0.3777" style="stop-color:#7DB6E3"/>
		<stop  offset="0.5674" style="stop-color:#1E9AD6"/>
		<stop  offset="0.8652" style="stop-color:#0D76BC"/>
		<stop  offset="0.9944" style="stop-color:#045C98"/>
		<stop  offset="1" style="stop-color:#045C98"/>
	</linearGradient>
	<rect x="2.17" y="-0.15" class="st0" width="97.85" height="86.76"/>
</g>
<g>
	<defs>
		<path id="SVGID_4_" d="M138.45,75.53c0.7-0.69,1.37-1.37,2-2.02C139.81,74.04,139.15,74.71,138.45,75.53 M164.31,35.45
			c-3.33,8.24-4.74,12.38-9.36,19.63c-3.56,5.59-7.01,10.72-14.5,18.42c7.75-6.54,11.33,6.35,24.86,8.23
			c-5.6-3.44-9.81-8.29-13.28-13.79c10.29,9.17,19.02,18.67,35.14,10.72c-9.42,0.22-23.66-7.04-30.55-12.93
			c13.52,6.15,30.89,19.19,47.2,4.98c-12.15,3.97-31.69-5.3-42.25-9.67c15.5,2.68,38.55,16.91,54.65-2.29
			c-13.72,7.54-38.85-1.6-52.79-4.47c19,0.77,46.93,9.09,61.39-16.07c-13.58,11.86-45.23,9.03-60.48,8.2
			c31.53-2.66,58.6,4.51,71.97-46.56C215.2,38.2,172.57,15.04,164.31,35.45"/>
	</defs>
	<clipPath id="SVGID_5_">
		<use xlink:href="#SVGID_4_"  style="overflow:visible;"/>
	</clipPath>
	
		<linearGradient id="SVGID_6_" gradientUnits="userSpaceOnUse" x1="-358.0606" y1="1155.3608" x2="-357.8665" y2="1155.3608" gradientTransform="matrix(-504.2861 0 0 -504.2861 -180328.6719 582675.625)">
		<stop  offset="0" style="stop-color:#CBDFF3"/>
		<stop  offset="0.079" style="stop-color:#C3DAF1"/>
		<stop  offset="0.2103" style="stop-color:#AACCEC"/>
		<stop  offset="0.3777" style="stop-color:#7DB6E3"/>
		<stop  offset="0.5674" style="stop-color:#1E9AD6"/>
		<stop  offset="0.8652" style="stop-color:#0D76BC"/>
		<stop  offset="0.9944" style="stop-color:#045C98"/>
		<stop  offset="1" style="stop-color:#045C98"/>
	</linearGradient>
	<rect x="138.45" y="-0.15" class="st1" width="97.85" height="86.76"/>
</g>
<g>
	<defs>
		<path id="SVGID_7_" d="M112.03,11.82c-14.92,1.42-28.68,6.6-31.53,8.78c-2.59,1.98-3.4,5.2-3.42,8.62
			c-0.02,3.56,2.17,2.99,4.4,2.24c5.87-1.97,11.73-5.55,28.24-8.17c15.95-2.53,38.13-0.3,40.66,9.5
			c5.03,19.45-22.19,53.12-30.77,53.12c-7.25,0-34.76-30.05-29.29-40.06c5.47-10.02,42.07-10.59,43.69-4.06
			c0.83,3.34-7.65,15.24-11.21,21.08c-1.24,2.04-4.17,2.14-5.55,0.19L105.29,49.9c-0.47-0.66-1.17-1.13-1.96-1.31
			c-0.72-0.16-1.77-0.28-3.25-0.22c-0.04,0-0.07,0-0.11,0c-2.56,0.13-4.01,3-2.61,5.15c4.73,7.25,19.4,25.21,22.33,25.21
			c3.11,0,30.38-34.83,23.65-44.34c-5.75-8.12-47.76-9.51-59.96,4.21c-14.46,16.26,24.85,57.77,37.13,57.04
			c11.24-0.66,47.93-45,39.05-68.22c-4.31-11.29-21.25-16.03-38.47-16.03C118.06,11.39,115.02,11.54,112.03,11.82"/>
	</defs>
	<clipPath id="SVGID_8_">
		<use xlink:href="#SVGID_7_"  style="overflow:visible;"/>
	</clipPath>
	
		<linearGradient id="SVGID_9_" gradientUnits="userSpaceOnUse" x1="-357.2625" y1="1156.4978" x2="-357.0685" y2="1156.4978" gradientTransform="matrix(0 434.2223 434.2223 0 -502058.4375 155142.7344)">
		<stop  offset="0" style="stop-color:#CBDFF3"/>
		<stop  offset="0.0288" style="stop-color:#C3DAF1"/>
		<stop  offset="0.0766" style="stop-color:#AACCEC"/>
		<stop  offset="0.1375" style="stop-color:#7DB6E3"/>
		<stop  offset="0.2066" style="stop-color:#1E9AD6"/>
		<stop  offset="0.6848" style="stop-color:#0D76BC"/>
		<stop  offset="0.9944" style="stop-color:#045C98"/>
		<stop  offset="1" style="stop-color:#045C98"/>
	</linearGradient>
	<rect x="68.91" y="11.39" class="st2" width="99.52" height="84.97"/>
</g>
<text transform="matrix(1.1441 0 0 1 54.5124 123.4427)"><tspan x="0" y="0" class="st3 st4 st5 st6">CR</tspan><tspan x="28.76" y="0" class="st3 st4 st5 st6">E</tspan><tspan x="42.24" y="0" class="st3 st4 st5">A</tspan><tspan x="56.44" y="0" class="st3 st4 st5 st6">T</tspan><tspan x="69.46" y="0" class="st3 st4 st5 st6">I</tspan><tspan x="77.84" y="0" class="st3 st4 st5 st6">V</tspan><tspan x="92.72" y="0" class="st3 st4 st5">E</tspan></text>
<text transform="matrix(1.1439 -0.0225 0.0197 0.9998 176.1431 115.9836)" class="st3 st4 st7">+</text>
</svg>
